<mxfile host="app.diagrams.net" modified="2020-11-15T07:51:18.583Z" agent="5.0 (Windows)" etag="pBP21UmmPXP6m64ACxRh" version="13.9.8" type="github">
  <diagram id="_90nY1ROmxla8LjIMimG" name="Page-1">
    <mxGraphModel dx="1038" dy="547" grid="1" gridSize="10" guides="1" tooltips="1" connect="1" arrows="1" fold="1" page="1" pageScale="1" pageWidth="827" pageHeight="1169" math="0" shadow="0">
      <root>
        <mxCell id="0" />
        <mxCell id="1" parent="0" />
        <mxCell id="qumrTMRH-zgTV6wFoPhX-67" value="" style="rounded=0;whiteSpace=wrap;html=1;strokeColor=#666666;dashed=1;fontColor=#333333;fillColor=#9AC7BF;fontStyle=1" vertex="1" parent="1">
          <mxGeometry x="150" y="100" width="370" height="300" as="geometry" />
        </mxCell>
        <mxCell id="qumrTMRH-zgTV6wFoPhX-7" value="" style="rounded=0;whiteSpace=wrap;html=1;strokeColor=#000000;dashed=1;fillColor=#FFF2CC;" vertex="1" parent="1">
          <mxGeometry x="580" y="70" width="220" height="410" as="geometry" />
        </mxCell>
        <mxCell id="qumrTMRH-zgTV6wFoPhX-1" value="Actor" style="shape=umlActor;verticalLabelPosition=bottom;verticalAlign=top;html=1;outlineConnect=0;fillColor=#e1d5e7;strokeColor=#9673a6;" vertex="1" parent="1">
          <mxGeometry x="20" y="175" width="30" height="60" as="geometry" />
        </mxCell>
        <mxCell id="qumrTMRH-zgTV6wFoPhX-13" value="" style="rounded=0;whiteSpace=wrap;html=1;strokeColor=#000000;dashed=1;fillColor=#FFCE9F;" vertex="1" parent="1">
          <mxGeometry x="590" y="250" width="200" height="220" as="geometry" />
        </mxCell>
        <mxCell id="qumrTMRH-zgTV6wFoPhX-36" value="数据源" style="text;html=1;strokeColor=none;fillColor=none;align=center;verticalAlign=middle;whiteSpace=wrap;rounded=0;" vertex="1" parent="1">
          <mxGeometry x="670" y="490" width="40" height="20" as="geometry" />
        </mxCell>
        <mxCell id="qumrTMRH-zgTV6wFoPhX-37" value="用户" style="text;html=1;strokeColor=none;fillColor=none;align=center;verticalAlign=middle;whiteSpace=wrap;rounded=0;" vertex="1" parent="1">
          <mxGeometry x="20" y="280" width="40" height="20" as="geometry" />
        </mxCell>
        <mxCell id="qumrTMRH-zgTV6wFoPhX-40" value="" style="group" vertex="1" connectable="0" parent="1">
          <mxGeometry x="600" y="260" width="180" height="60" as="geometry" />
        </mxCell>
        <mxCell id="qumrTMRH-zgTV6wFoPhX-25" value="" style="rounded=0;whiteSpace=wrap;html=1;strokeColor=#d79b00;fillColor=#ffe6cc;dashed=1;" vertex="1" parent="qumrTMRH-zgTV6wFoPhX-40">
          <mxGeometry width="180" height="60" as="geometry" />
        </mxCell>
        <mxCell id="qumrTMRH-zgTV6wFoPhX-29" value="" style="shape=document;whiteSpace=wrap;html=1;boundedLbl=1;strokeColor=#000000;fillColor=#E6E6E6;" vertex="1" parent="qumrTMRH-zgTV6wFoPhX-40">
          <mxGeometry x="120" width="40" height="15" as="geometry" />
        </mxCell>
        <mxCell id="qumrTMRH-zgTV6wFoPhX-30" value="" style="shape=document;whiteSpace=wrap;html=1;boundedLbl=1;strokeColor=#000000;fillColor=#E6E6E6;" vertex="1" parent="qumrTMRH-zgTV6wFoPhX-40">
          <mxGeometry x="80" width="40" height="15" as="geometry" />
        </mxCell>
        <mxCell id="qumrTMRH-zgTV6wFoPhX-31" value="" style="shape=document;whiteSpace=wrap;html=1;boundedLbl=1;strokeColor=#000000;fillColor=#E6E6E6;" vertex="1" parent="qumrTMRH-zgTV6wFoPhX-40">
          <mxGeometry x="40" width="40" height="15" as="geometry" />
        </mxCell>
        <mxCell id="qumrTMRH-zgTV6wFoPhX-32" value="" style="shape=document;whiteSpace=wrap;html=1;boundedLbl=1;strokeColor=#000000;fillColor=#E6E6E6;" vertex="1" parent="qumrTMRH-zgTV6wFoPhX-40">
          <mxGeometry width="40" height="15" as="geometry" />
        </mxCell>
        <mxCell id="qumrTMRH-zgTV6wFoPhX-38" value="离线模式本地文件存储" style="text;html=1;strokeColor=none;fillColor=none;align=center;verticalAlign=middle;whiteSpace=wrap;rounded=0;" vertex="1" parent="qumrTMRH-zgTV6wFoPhX-40">
          <mxGeometry x="10" y="37.5" width="140" height="15" as="geometry" />
        </mxCell>
        <mxCell id="qumrTMRH-zgTV6wFoPhX-56" value="" style="group" vertex="1" connectable="0" parent="1">
          <mxGeometry x="600" y="340" width="180" height="50" as="geometry" />
        </mxCell>
        <mxCell id="qumrTMRH-zgTV6wFoPhX-24" value="" style="rounded=0;whiteSpace=wrap;html=1;strokeColor=#d79b00;fillColor=#ffe6cc;dashed=1;" vertex="1" parent="qumrTMRH-zgTV6wFoPhX-56">
          <mxGeometry width="180" height="50" as="geometry" />
        </mxCell>
        <mxCell id="qumrTMRH-zgTV6wFoPhX-26" value="" style="shape=document;whiteSpace=wrap;html=1;boundedLbl=1;strokeColor=#000000;fillColor=#E6E6E6;" vertex="1" parent="qumrTMRH-zgTV6wFoPhX-56">
          <mxGeometry x="80" width="40" height="14.285714285714286" as="geometry" />
        </mxCell>
        <mxCell id="qumrTMRH-zgTV6wFoPhX-33" value="" style="shape=document;whiteSpace=wrap;html=1;boundedLbl=1;strokeColor=#000000;fillColor=#E6E6E6;" vertex="1" parent="qumrTMRH-zgTV6wFoPhX-56">
          <mxGeometry x="120" width="40" height="14.285714285714286" as="geometry" />
        </mxCell>
        <mxCell id="qumrTMRH-zgTV6wFoPhX-35" value="虚拟磁盘缓存线上目录和文件" style="text;html=1;strokeColor=none;fillColor=none;align=center;verticalAlign=middle;whiteSpace=wrap;rounded=0;" vertex="1" parent="qumrTMRH-zgTV6wFoPhX-56">
          <mxGeometry x="10" y="28.571428571428573" width="160" height="14.285714285714286" as="geometry" />
        </mxCell>
        <mxCell id="qumrTMRH-zgTV6wFoPhX-54" value="" style="shape=document;whiteSpace=wrap;html=1;boundedLbl=1;strokeColor=#000000;fillColor=#E6E6E6;size=0.5;" vertex="1" parent="qumrTMRH-zgTV6wFoPhX-56">
          <mxGeometry width="40" height="14.285714285714286" as="geometry" />
        </mxCell>
        <mxCell id="qumrTMRH-zgTV6wFoPhX-55" value="" style="shape=document;whiteSpace=wrap;html=1;boundedLbl=1;strokeColor=#000000;fillColor=#E6E6E6;" vertex="1" parent="qumrTMRH-zgTV6wFoPhX-56">
          <mxGeometry x="40" width="40" height="14.285714285714286" as="geometry" />
        </mxCell>
        <mxCell id="qumrTMRH-zgTV6wFoPhX-59" value="" style="group" vertex="1" connectable="0" parent="1">
          <mxGeometry x="590" y="170" width="200" height="70" as="geometry" />
        </mxCell>
        <mxCell id="qumrTMRH-zgTV6wFoPhX-11" value="" style="rounded=0;whiteSpace=wrap;html=1;strokeColor=#000000;dashed=1;fillColor=#99CCFF;" vertex="1" parent="qumrTMRH-zgTV6wFoPhX-59">
          <mxGeometry width="200" height="70" as="geometry" />
        </mxCell>
        <mxCell id="qumrTMRH-zgTV6wFoPhX-58" value="" style="group" vertex="1" connectable="0" parent="qumrTMRH-zgTV6wFoPhX-59">
          <mxGeometry width="200" height="70" as="geometry" />
        </mxCell>
        <mxCell id="qumrTMRH-zgTV6wFoPhX-9" value="" style="shape=cylinder3;whiteSpace=wrap;html=1;boundedLbl=1;backgroundOutline=1;size=15;dashed=1;strokeColor=#000000;fillColor=#E6E6E6;" vertex="1" parent="qumrTMRH-zgTV6wFoPhX-58">
          <mxGeometry x="45" width="55" height="38.88888888888889" as="geometry" />
        </mxCell>
        <mxCell id="qumrTMRH-zgTV6wFoPhX-10" value="" style="shape=cylinder3;whiteSpace=wrap;html=1;boundedLbl=1;backgroundOutline=1;size=15;dashed=1;strokeColor=#000000;fillColor=#E6E6E6;" vertex="1" parent="qumrTMRH-zgTV6wFoPhX-58">
          <mxGeometry x="110" width="55" height="38.88888888888889" as="geometry" />
        </mxCell>
        <mxCell id="qumrTMRH-zgTV6wFoPhX-12" value="ISale线上服务" style="text;html=1;strokeColor=none;fillColor=none;align=center;verticalAlign=middle;whiteSpace=wrap;rounded=0;dashed=1;" vertex="1" parent="qumrTMRH-zgTV6wFoPhX-58">
          <mxGeometry x="50" y="46.666666666666664" width="100" height="15.555555555555555" as="geometry" />
        </mxCell>
        <mxCell id="qumrTMRH-zgTV6wFoPhX-70" value="数据交互（存取，增删改查，校验等）" style="text;html=1;strokeColor=#666666;fillColor=#f5f5f5;align=center;verticalAlign=middle;whiteSpace=wrap;rounded=0;fontColor=#333333;dashed=1;" vertex="1" parent="1">
          <mxGeometry x="510" y="40" width="80" height="60" as="geometry" />
        </mxCell>
        <mxCell id="qumrTMRH-zgTV6wFoPhX-74" value="界面交互操作" style="text;html=1;strokeColor=none;align=center;verticalAlign=middle;whiteSpace=wrap;rounded=0;dashed=1;fillColor=#E6E6E6;" vertex="1" parent="1">
          <mxGeometry x="78" y="170" width="70" height="30" as="geometry" />
        </mxCell>
        <mxCell id="qumrTMRH-zgTV6wFoPhX-87" value="" style="group" vertex="1" connectable="0" parent="1">
          <mxGeometry x="600" y="400" width="180" height="50" as="geometry" />
        </mxCell>
        <mxCell id="qumrTMRH-zgTV6wFoPhX-78" value="" style="rounded=0;whiteSpace=wrap;html=1;strokeColor=#d79b00;fillColor=#ffe6cc;dashed=1;" vertex="1" parent="qumrTMRH-zgTV6wFoPhX-87">
          <mxGeometry width="180" height="50" as="geometry" />
        </mxCell>
        <mxCell id="qumrTMRH-zgTV6wFoPhX-79" value="" style="shape=cylinder3;whiteSpace=wrap;html=1;boundedLbl=1;backgroundOutline=1;size=15;dashed=1;strokeColor=#000000;fillColor=#E6E6E6;" vertex="1" parent="qumrTMRH-zgTV6wFoPhX-87">
          <mxGeometry x="22.5" width="27.749999999999993" height="25.714285714285715" as="geometry" />
        </mxCell>
        <mxCell id="qumrTMRH-zgTV6wFoPhX-82" value="Sqlite" style="text;html=1;strokeColor=none;fillColor=none;align=center;verticalAlign=middle;whiteSpace=wrap;rounded=0;" vertex="1" parent="qumrTMRH-zgTV6wFoPhX-87">
          <mxGeometry x="22.5" y="25.714285714285715" width="29.999999999999993" height="12.857142857142858" as="geometry" />
        </mxCell>
        <mxCell id="qumrTMRH-zgTV6wFoPhX-84" value="" style="group" vertex="1" connectable="0" parent="qumrTMRH-zgTV6wFoPhX-87">
          <mxGeometry x="82.49999999999997" y="4.821428571428571" width="59.999999999999986" height="16.07142857142857" as="geometry" />
        </mxCell>
        <mxCell id="qumrTMRH-zgTV6wFoPhX-80" value="" style="shape=document;whiteSpace=wrap;html=1;boundedLbl=1;strokeColor=#000000;fillColor=#E6E6E6;" vertex="1" parent="qumrTMRH-zgTV6wFoPhX-84">
          <mxGeometry width="29.999999999999993" height="16.07142857142857" as="geometry" />
        </mxCell>
        <mxCell id="qumrTMRH-zgTV6wFoPhX-81" value="" style="shape=document;whiteSpace=wrap;html=1;boundedLbl=1;strokeColor=#000000;fillColor=#E6E6E6;" vertex="1" parent="qumrTMRH-zgTV6wFoPhX-84">
          <mxGeometry x="29.999999999999993" width="29.999999999999993" height="16.07142857142857" as="geometry" />
        </mxCell>
        <mxCell id="qumrTMRH-zgTV6wFoPhX-89" value="config &amp;amp; user metadata" style="text;html=1;strokeColor=none;fillColor=none;align=center;verticalAlign=middle;whiteSpace=wrap;rounded=0;" vertex="1" parent="qumrTMRH-zgTV6wFoPhX-87">
          <mxGeometry x="80" y="26" width="80" height="20" as="geometry" />
        </mxCell>
        <mxCell id="qumrTMRH-zgTV6wFoPhX-90" value="" style="group" vertex="1" connectable="0" parent="1">
          <mxGeometry x="600" y="80" width="190" height="70" as="geometry" />
        </mxCell>
        <mxCell id="qumrTMRH-zgTV6wFoPhX-62" value="" style="ellipse;shape=cloud;whiteSpace=wrap;html=1;strokeColor=#000000;fillColor=#99CCFF;" vertex="1" parent="qumrTMRH-zgTV6wFoPhX-90">
          <mxGeometry width="190" height="70" as="geometry" />
        </mxCell>
        <mxCell id="qumrTMRH-zgTV6wFoPhX-63" value="&lt;div&gt;云服务接口&lt;br&gt;&lt;/div&gt;&lt;div&gt;&lt;br&gt;&lt;/div&gt;" style="text;html=1;strokeColor=none;fillColor=none;align=center;verticalAlign=middle;whiteSpace=wrap;rounded=0;" vertex="1" parent="qumrTMRH-zgTV6wFoPhX-90">
          <mxGeometry x="60" y="30" width="80" height="20" as="geometry" />
        </mxCell>
        <mxCell id="qumrTMRH-zgTV6wFoPhX-126" value="" style="group" vertex="1" connectable="0" parent="1">
          <mxGeometry x="220" y="140" width="220" height="200" as="geometry" />
        </mxCell>
        <mxCell id="qumrTMRH-zgTV6wFoPhX-113" value="Views" style="ellipse;whiteSpace=wrap;html=1;aspect=fixed;strokeColor=#000000;fillColor=#EA6B66;fontStyle=1;fontSize=14;" vertex="1" parent="qumrTMRH-zgTV6wFoPhX-126">
          <mxGeometry y="120" width="80" height="80" as="geometry" />
        </mxCell>
        <mxCell id="qumrTMRH-zgTV6wFoPhX-114" value="Controller" style="ellipse;whiteSpace=wrap;html=1;aspect=fixed;strokeColor=#2D7600;fillColor=#006633;fontSize=14;" vertex="1" parent="qumrTMRH-zgTV6wFoPhX-126">
          <mxGeometry x="70" width="80" height="80" as="geometry" />
        </mxCell>
        <mxCell id="qumrTMRH-zgTV6wFoPhX-115" value="Models" style="ellipse;whiteSpace=wrap;html=1;aspect=fixed;strokeColor=#000000;fillColor=#FFF2CC;fontSize=14;fontStyle=1" vertex="1" parent="qumrTMRH-zgTV6wFoPhX-126">
          <mxGeometry x="140" y="120" width="80" height="80" as="geometry" />
        </mxCell>
        <mxCell id="qumrTMRH-zgTV6wFoPhX-116" value="" style="endArrow=none;dashed=1;html=1;fillColor=#FFFFCC;fontColor=#000000;entryX=0;entryY=0.5;entryDx=0;entryDy=0;exitX=1;exitY=0.5;exitDx=0;exitDy=0;" edge="1" parent="qumrTMRH-zgTV6wFoPhX-126" source="qumrTMRH-zgTV6wFoPhX-113" target="qumrTMRH-zgTV6wFoPhX-115">
          <mxGeometry width="50" height="50" relative="1" as="geometry">
            <mxPoint x="290" y="330" as="sourcePoint" />
            <mxPoint x="340" y="280" as="targetPoint" />
          </mxGeometry>
        </mxCell>
        <mxCell id="qumrTMRH-zgTV6wFoPhX-128" value="" style="endArrow=classic;html=1;fillColor=#FFFFCC;fontSize=14;fontColor=#000000;exitX=0;exitY=0.5;exitDx=0;exitDy=0;entryX=-0.012;entryY=0.425;entryDx=0;entryDy=0;entryPerimeter=0;edgeStyle=orthogonalEdgeStyle;" edge="1" parent="qumrTMRH-zgTV6wFoPhX-126" source="qumrTMRH-zgTV6wFoPhX-113" target="qumrTMRH-zgTV6wFoPhX-114">
          <mxGeometry width="50" height="50" relative="1" as="geometry">
            <mxPoint x="-10" y="125" as="sourcePoint" />
            <mxPoint x="40" y="75" as="targetPoint" />
          </mxGeometry>
        </mxCell>
        <mxCell id="qumrTMRH-zgTV6wFoPhX-127" value="" style="endArrow=classic;html=1;fillColor=#FFFFCC;fontSize=14;fontColor=#000000;exitX=0;exitY=0.5;exitDx=0;exitDy=0;entryX=0.025;entryY=0.363;entryDx=0;entryDy=0;entryPerimeter=0;edgeStyle=orthogonalEdgeStyle;" edge="1" parent="qumrTMRH-zgTV6wFoPhX-126" source="qumrTMRH-zgTV6wFoPhX-114" target="qumrTMRH-zgTV6wFoPhX-113">
          <mxGeometry width="50" height="50" relative="1" as="geometry">
            <mxPoint x="120" y="190" as="sourcePoint" />
            <mxPoint x="170" y="140" as="targetPoint" />
          </mxGeometry>
        </mxCell>
        <mxCell id="qumrTMRH-zgTV6wFoPhX-129" value="" style="endArrow=classic;html=1;fillColor=#FFFFCC;fontSize=14;fontColor=#000000;exitX=1;exitY=0.5;exitDx=0;exitDy=0;entryX=1;entryY=0.5;entryDx=0;entryDy=0;edgeStyle=orthogonalEdgeStyle;" edge="1" parent="qumrTMRH-zgTV6wFoPhX-126" source="qumrTMRH-zgTV6wFoPhX-115" target="qumrTMRH-zgTV6wFoPhX-114">
          <mxGeometry width="50" height="50" relative="1" as="geometry">
            <mxPoint x="140" y="190" as="sourcePoint" />
            <mxPoint x="190" y="140" as="targetPoint" />
          </mxGeometry>
        </mxCell>
        <mxCell id="qumrTMRH-zgTV6wFoPhX-132" value="" style="endArrow=classic;html=1;fillColor=#FFFFCC;fontSize=14;fontColor=#000000;exitX=1.013;exitY=0.625;exitDx=0;exitDy=0;exitPerimeter=0;entryX=1.025;entryY=0.338;entryDx=0;entryDy=0;entryPerimeter=0;edgeStyle=orthogonalEdgeStyle;" edge="1" parent="qumrTMRH-zgTV6wFoPhX-126" source="qumrTMRH-zgTV6wFoPhX-114" target="qumrTMRH-zgTV6wFoPhX-115">
          <mxGeometry width="50" height="50" relative="1" as="geometry">
            <mxPoint x="140" y="249" as="sourcePoint" />
            <mxPoint x="190" y="199" as="targetPoint" />
          </mxGeometry>
        </mxCell>
        <mxCell id="qumrTMRH-zgTV6wFoPhX-134" value="notify" style="text;html=1;strokeColor=none;fillColor=none;align=center;verticalAlign=middle;whiteSpace=wrap;rounded=0;fontSize=14;fontColor=#000000;" vertex="1" parent="qumrTMRH-zgTV6wFoPhX-126">
          <mxGeometry x="10" y="81" width="40" height="20" as="geometry" />
        </mxCell>
        <mxCell id="qumrTMRH-zgTV6wFoPhX-133" value="events or signal&lt;br&gt;事件响应&lt;br&gt;wndproc" style="text;html=1;strokeColor=none;fillColor=none;align=center;verticalAlign=middle;whiteSpace=wrap;rounded=0;fontSize=14;fontColor=#000000;" vertex="1" parent="1">
          <mxGeometry x="160" y="182" width="40" height="53" as="geometry" />
        </mxCell>
        <mxCell id="qumrTMRH-zgTV6wFoPhX-136" value="数据变化通知" style="text;html=1;strokeColor=none;fillColor=none;align=center;verticalAlign=middle;whiteSpace=wrap;rounded=0;fontSize=14;fontColor=#000000;" vertex="1" parent="1">
          <mxGeometry x="460" y="209" width="40" height="20" as="geometry" />
        </mxCell>
      </root>
    </mxGraphModel>
  </diagram>
</mxfile>
